<?xml version="1.0" encoding="UTF-8" standalone="no"?>
<!-- Created with Inkscape (http://www.inkscape.org/) -->

<svg
   xmlns:dc="http://purl.org/dc/elements/1.1/"
   xmlns:cc="http://creativecommons.org/ns#"
   xmlns:rdf="http://www.w3.org/1999/02/22-rdf-syntax-ns#"
   xmlns:svg="http://www.w3.org/2000/svg"
   xmlns="http://www.w3.org/2000/svg"
   xmlns:sodipodi="http://sodipodi.sourceforge.net/DTD/sodipodi-0.dtd"
   xmlns:inkscape="http://www.inkscape.org/namespaces/inkscape"
   width="300"
   height="300"
   id="svg2"
   version="1.1"
   inkscape:version="0.48.4 r9939"
   sodipodi:docname="star_bg.svg"
   inkscape:export-filename="D:\Klomp\Downloads\star2_bg.png"
   inkscape:export-xdpi="126"
   inkscape:export-ydpi="126">
  <defs
     id="defs4" />
  <sodipodi:namedview
     id="base"
     pagecolor="#ffffff"
     bordercolor="#666666"
     borderopacity="1.0"
     inkscape:pageopacity="0.0"
     inkscape:pageshadow="2"
     inkscape:zoom="1.4"
     inkscape:cx="109.73799"
     inkscape:cy="116.5955"
     inkscape:document-units="px"
     inkscape:current-layer="layer2"
     showgrid="false"
     inkscape:window-width="1400"
     inkscape:window-height="839"
     inkscape:window-x="100"
     inkscape:window-y="100"
     inkscape:window-maximized="0" />
  <metadata
     id="metadata7">
    <rdf:RDF>
      <cc:Work
         rdf:about="">
        <dc:format>image/svg+xml</dc:format>
        <dc:type
           rdf:resource="http://purl.org/dc/dcmitype/StillImage" />
        <dc:title></dc:title>
      </cc:Work>
    </rdf:RDF>
  </metadata>
  <g
     inkscape:label="Ebene 1"
     inkscape:groupmode="layer"
     id="layer1"
     transform="translate(0,-752.36218)"
     style="display:inline">
    <rect
       style="fill:#000000;fill-opacity:1;stroke:none"
       id="rect2985"
       width="319.20819"
       height="314.15744"
       x="-9.0913725"
       y="-7.5914502"
       transform="translate(0,752.36218)" />
  </g>
  <g
     inkscape:groupmode="layer"
     id="layer2"
     inkscape:label="stars1"
     style="display:inline">
    <path
       sodipodi:type="arc"
       style="fill:#c6c6c6;fill-opacity:1;stroke:none;display:inline"
       id="path3755-45-3"
       sodipodi:cx="355.82623"
       sodipodi:cy="123.98092"
       sodipodi:rx="1.767767"
       sodipodi:ry="1.767767"
       d="m 357.594,123.98092 a 1.767767,1.767767 0 1 1 -3.53553,0 1.767767,1.767767 0 1 1 3.53553,0 z"
       transform="matrix(0.55357143,0,0,0.55357143,-166.33584,155.72832)" />
    <path
       sodipodi:type="arc"
       style="fill:#c6c6c6;fill-opacity:1;stroke:none;display:inline"
       id="path3755-45-3-3"
       sodipodi:cx="355.82623"
       sodipodi:cy="123.98092"
       sodipodi:rx="1.767767"
       sodipodi:ry="1.767767"
       d="m 357.594,123.98092 a 1.767767,1.767767 0 1 1 -3.53553,0 1.767767,1.767767 0 1 1 3.53553,0 z"
       transform="matrix(0.55357143,0,0,0.55357143,-72.689522,148.51056)" />
    <path
       sodipodi:type="arc"
       style="fill:#c6c6c6;fill-opacity:1;stroke:none;display:inline"
       id="path3755-45-3-4"
       sodipodi:cx="355.82623"
       sodipodi:cy="123.98092"
       sodipodi:rx="1.767767"
       sodipodi:ry="1.767767"
       d="m 357.594,123.98092 a 1.767767,1.767767 0 1 1 -3.53553,0 1.767767,1.767767 0 1 1 3.53553,0 z"
       transform="matrix(0.55357143,0,0,0.55357143,-28.403808,89.939134)" />
    <path
       sodipodi:type="arc"
       style="fill:#c6c6c6;fill-opacity:1;stroke:none;display:inline"
       id="path3755-45-3-1"
       sodipodi:cx="355.82623"
       sodipodi:cy="123.98092"
       sodipodi:rx="1.767767"
       sodipodi:ry="1.767767"
       d="m 357.594,123.98092 a 1.767767,1.767767 0 1 1 -3.53553,0 1.767767,1.767767 0 1 1 3.53553,0 z"
       transform="matrix(0.55357143,0,0,0.55357143,-68.403808,52.796277)" />
    <path
       sodipodi:type="arc"
       style="fill:#c6c6c6;fill-opacity:1;stroke:none;display:inline"
       id="path3755-45-3-13"
       sodipodi:cx="355.82623"
       sodipodi:cy="123.98092"
       sodipodi:rx="1.767767"
       sodipodi:ry="1.767767"
       d="m 357.594,123.98092 a 1.767767,1.767767 0 1 1 -3.53553,0 1.767767,1.767767 0 1 1 3.53553,0 z"
       transform="matrix(0.55357143,0,0,0.55357143,-99.832379,20.65342)" />
    <path
       sodipodi:type="arc"
       style="fill:#c6c6c6;fill-opacity:1;stroke:none;display:inline"
       id="path3755-45-3-8"
       sodipodi:cx="355.82623"
       sodipodi:cy="123.98092"
       sodipodi:rx="1.767767"
       sodipodi:ry="1.767767"
       d="m 357.594,123.98092 a 1.767767,1.767767 0 1 1 -3.53553,0 1.767767,1.767767 0 1 1 3.53553,0 z"
       transform="matrix(0.55357143,0,0,0.55357143,-141.26095,69.939134)" />
    <path
       sodipodi:type="arc"
       style="fill:#c6c6c6;fill-opacity:1;stroke:none;display:inline"
       id="path3755-45-3-7"
       sodipodi:cx="355.82623"
       sodipodi:cy="123.98092"
       sodipodi:rx="1.767767"
       sodipodi:ry="1.767767"
       d="m 357.594,123.98092 a 1.767767,1.767767 0 1 1 -3.53553,0 1.767767,1.767767 0 1 1 3.53553,0 z"
       transform="matrix(0.55357143,0,0,0.55357143,-184.11809,17.796277)" />
    <path
       sodipodi:type="arc"
       style="fill:#c6c6c6;fill-opacity:1;stroke:none;display:inline"
       id="path3755-45-3-42"
       sodipodi:cx="355.82623"
       sodipodi:cy="123.98092"
       sodipodi:rx="1.767767"
       sodipodi:ry="1.767767"
       d="m 357.594,123.98092 a 1.767767,1.767767 0 1 1 -3.53553,0 1.767767,1.767767 0 1 1 3.53553,0 z"
       transform="matrix(0.55357143,0,0,0.55357143,-143.40381,-25.775152)" />
    <path
       sodipodi:type="arc"
       style="fill:#c6c6c6;fill-opacity:1;stroke:none;display:inline"
       id="path3755-45-3-77"
       sodipodi:cx="355.82623"
       sodipodi:cy="123.98092"
       sodipodi:rx="1.767767"
       sodipodi:ry="1.767767"
       d="m 357.594,123.98092 a 1.767767,1.767767 0 1 1 -3.53553,0 1.767767,1.767767 0 1 1 3.53553,0 z"
       transform="matrix(0.55357143,0,0,0.55357143,-97.689522,-47.203723)" />
    <path
       sodipodi:type="arc"
       style="fill:#c6c6c6;fill-opacity:1;stroke:none;display:inline"
       id="path3755-45-3-9"
       sodipodi:cx="355.82623"
       sodipodi:cy="123.98092"
       sodipodi:rx="1.767767"
       sodipodi:ry="1.767767"
       d="m 357.594,123.98092 a 1.767767,1.767767 0 1 1 -3.53553,0 1.767767,1.767767 0 1 1 3.53553,0 z"
       transform="matrix(0.55357143,0,0,0.55357143,-54.118094,-14.346581)" />
    <path
       sodipodi:type="arc"
       style="fill:#c6c6c6;fill-opacity:1;stroke:none;display:inline"
       id="path3755-45-3-31"
       sodipodi:cx="355.82623"
       sodipodi:cy="123.98092"
       sodipodi:rx="1.767767"
       sodipodi:ry="1.767767"
       d="m 357.594,123.98092 a 1.767767,1.767767 0 1 1 -3.53553,0 1.767767,1.767767 0 1 1 3.53553,0 z"
       transform="matrix(0.55357143,0,0,0.55357143,-9.1180935,8.5105623)" />
    <path
       sodipodi:type="arc"
       style="fill:#c6c6c6;fill-opacity:1;stroke:none;display:inline"
       id="path3755-45-3-98"
       sodipodi:cx="355.82623"
       sodipodi:cy="123.98092"
       sodipodi:rx="1.767767"
       sodipodi:ry="1.767767"
       d="m 357.594,123.98092 a 1.767767,1.767767 0 1 1 -3.53553,0 1.767767,1.767767 0 1 1 3.53553,0 z"
       transform="matrix(0.55357143,0,0,0.55357143,-1.2609507,-65.775152)" />
    <path
       sodipodi:type="arc"
       style="fill:#c6c6c6;fill-opacity:1;stroke:none;display:inline"
       id="path3755-45-3-6"
       sodipodi:cx="355.82623"
       sodipodi:cy="123.98092"
       sodipodi:rx="1.767767"
       sodipodi:ry="1.767767"
       d="m 357.594,123.98092 a 1.767767,1.767767 0 1 1 -3.53553,0 1.767767,1.767767 0 1 1 3.53553,0 z"
       transform="matrix(0.55357143,0,0,0.55357143,100.16762,-12.918009)" />
    <path
       sodipodi:type="arc"
       style="fill:#c6c6c6;fill-opacity:1;stroke:none;display:inline"
       id="path3755-45-3-5"
       sodipodi:cx="355.82623"
       sodipodi:cy="123.98092"
       sodipodi:rx="1.767767"
       sodipodi:ry="1.767767"
       d="m 357.594,123.98092 a 1.767767,1.767767 0 1 1 -3.53553,0 1.767767,1.767767 0 1 1 3.53553,0 z"
       transform="matrix(0.55357143,0,0,0.55357143,43.024764,70.65342)" />
    <path
       sodipodi:type="arc"
       style="fill:#c6c6c6;fill-opacity:1;stroke:none;display:inline"
       id="path3755-45-3-0"
       sodipodi:cx="355.82623"
       sodipodi:cy="123.98092"
       sodipodi:rx="1.767767"
       sodipodi:ry="1.767767"
       d="m 357.594,123.98092 a 1.767767,1.767767 0 1 1 -3.53553,0 1.767767,1.767767 0 1 1 3.53553,0 z"
       transform="matrix(0.55357143,0,0,0.55357143,20.881907,144.93913)" />
    <path
       sodipodi:type="arc"
       style="fill:#c6c6c6;fill-opacity:1;stroke:none;display:inline"
       id="path3755-45-3-2"
       sodipodi:cx="355.82623"
       sodipodi:cy="123.98092"
       sodipodi:rx="1.767767"
       sodipodi:ry="1.767767"
       d="m 357.594,123.98092 a 1.767767,1.767767 0 1 1 -3.53553,0 1.767767,1.767767 0 1 1 3.53553,0 z"
       transform="matrix(0.55357143,0,0,0.55357143,75.881907,147.79628)" />
    <path
       sodipodi:type="arc"
       style="fill:#c6c6c6;fill-opacity:1;stroke:none;display:inline"
       id="path3755-45-3-86"
       sodipodi:cx="355.82623"
       sodipodi:cy="123.98092"
       sodipodi:rx="1.767767"
       sodipodi:ry="1.767767"
       d="m 357.594,123.98092 a 1.767767,1.767767 0 1 1 -3.53553,0 1.767767,1.767767 0 1 1 3.53553,0 z"
       transform="matrix(0.55357143,0,0,0.55357143,45.881907,124.93913)" />
    <path
       sodipodi:type="arc"
       style="fill:#c6c6c6;fill-opacity:1;stroke:none;display:inline"
       id="path3755-45-3-02"
       sodipodi:cx="355.82623"
       sodipodi:cy="123.98092"
       sodipodi:rx="1.767767"
       sodipodi:ry="1.767767"
       d="m 357.594,123.98092 a 1.767767,1.767767 0 1 1 -3.53553,0 1.767767,1.767767 0 1 1 3.53553,0 z"
       transform="matrix(0.55357143,0,0,0.55357143,35.881907,186.36771)" />
    <path
       sodipodi:type="arc"
       style="fill:#c6c6c6;fill-opacity:1;stroke:none;display:inline"
       id="path3755-45-3-48"
       sodipodi:cx="355.82623"
       sodipodi:cy="123.98092"
       sodipodi:rx="1.767767"
       sodipodi:ry="1.767767"
       d="m 357.594,123.98092 a 1.767767,1.767767 0 1 1 -3.53553,0 1.767767,1.767767 0 1 1 3.53553,0 z"
       transform="matrix(0.55357143,0,0,0.55357143,48.024764,217.08199)" />
    <path
       sodipodi:type="arc"
       style="fill:#c6c6c6;fill-opacity:1;stroke:none;display:inline"
       id="path3755-45-3-65"
       sodipodi:cx="355.82623"
       sodipodi:cy="123.98092"
       sodipodi:rx="1.767767"
       sodipodi:ry="1.767767"
       d="m 357.594,123.98092 a 1.767767,1.767767 0 1 1 -3.53553,0 1.767767,1.767767 0 1 1 3.53553,0 z"
       transform="matrix(0.55357143,0,0,0.55357143,-41.260951,178.51056)" />
    <path
       sodipodi:type="arc"
       style="fill:#c6c6c6;fill-opacity:1;stroke:none;display:inline"
       id="path3755-45-3-09"
       sodipodi:cx="355.82623"
       sodipodi:cy="123.98092"
       sodipodi:rx="1.767767"
       sodipodi:ry="1.767767"
       d="m 357.594,123.98092 a 1.767767,1.767767 0 1 1 -3.53553,0 1.767767,1.767767 0 1 1 3.53553,0 z"
       transform="matrix(0.55357143,0,0,0.55357143,-144.83238,214.22485)" />
    <path
       sodipodi:type="arc"
       style="fill:#c6c6c6;fill-opacity:1;stroke:none;display:inline"
       id="path3755-45-3-00"
       sodipodi:cx="355.82623"
       sodipodi:cy="123.98092"
       sodipodi:rx="1.767767"
       sodipodi:ry="1.767767"
       d="m 357.594,123.98092 a 1.767767,1.767767 0 1 1 -3.53553,0 1.767767,1.767767 0 1 1 3.53553,0 z"
       transform="matrix(0.55357143,0,0,0.55357143,-196.97524,227.08199)" />
    <path
       sodipodi:type="arc"
       style="fill:#c6c6c6;fill-opacity:1;stroke:none;display:inline"
       id="path3755-45-3-61"
       sodipodi:cx="355.82623"
       sodipodi:cy="123.98092"
       sodipodi:rx="1.767767"
       sodipodi:ry="1.767767"
       d="m 357.594,123.98092 a 1.767767,1.767767 0 1 1 -3.53553,0 1.767767,1.767767 0 1 1 3.53553,0 z"
       transform="matrix(0.55357143,0,0,0.55357143,-186.26095,94.224848)" />
    <path
       sodipodi:type="arc"
       style="fill:#c6c6c6;fill-opacity:1;stroke:none;display:inline"
       id="path3755-45-3-38"
       sodipodi:cx="355.82623"
       sodipodi:cy="123.98092"
       sodipodi:rx="1.767767"
       sodipodi:ry="1.767767"
       d="m 357.594,123.98092 a 1.767767,1.767767 0 1 1 -3.53553,0 1.767767,1.767767 0 1 1 3.53553,0 z"
       transform="matrix(0.55357143,0,0,0.55357143,90.167621,-58.632295)" />
    <path
       sodipodi:type="arc"
       style="fill:#c6c6c6;fill-opacity:1;stroke:none;display:inline"
       id="path3755-45-3-93"
       sodipodi:cx="355.82623"
       sodipodi:cy="123.98092"
       sodipodi:rx="1.767767"
       sodipodi:ry="1.767767"
       d="m 357.594,123.98092 a 1.767767,1.767767 0 1 1 -3.53553,0 1.767767,1.767767 0 1 1 3.53553,0 z"
       transform="matrix(0.55357143,0,0,0.55357143,30.167621,-55.775152)" />
    <path
       sodipodi:type="arc"
       style="fill:#c6c6c6;fill-opacity:1;stroke:none;display:inline"
       id="path3755-45-3-44"
       sodipodi:cx="355.82623"
       sodipodi:cy="123.98092"
       sodipodi:rx="1.767767"
       sodipodi:ry="1.767767"
       d="m 357.594,123.98092 a 1.767767,1.767767 0 1 1 -3.53553,0 1.767767,1.767767 0 1 1 3.53553,0 z"
       transform="matrix(0.55357143,0,0,0.55357143,58.739049,-12.918009)" />
    <path
       sodipodi:type="arc"
       style="fill:#c6c6c6;fill-opacity:1;stroke:none;display:inline"
       id="path3755-45-3-60"
       sodipodi:cx="355.82623"
       sodipodi:cy="123.98092"
       sodipodi:rx="1.767767"
       sodipodi:ry="1.767767"
       d="m 357.594,123.98092 a 1.767767,1.767767 0 1 1 -3.53553,0 1.767767,1.767767 0 1 1 3.53553,0 z"
       transform="matrix(0.55357143,0,0,0.55357143,30.881907,17.796277)" />
    <path
       sodipodi:type="arc"
       style="fill:#c6c6c6;fill-opacity:1;stroke:none;display:inline"
       id="path3755-45-3-66"
       sodipodi:cx="355.82623"
       sodipodi:cy="123.98092"
       sodipodi:rx="1.767767"
       sodipodi:ry="1.767767"
       d="m 357.594,123.98092 a 1.767767,1.767767 0 1 1 -3.53553,0 1.767767,1.767767 0 1 1 3.53553,0 z"
       transform="matrix(0.55357143,0,0,0.55357143,-29.118094,-29.346581)" />
    <path
       sodipodi:type="arc"
       style="fill:#c6c6c6;fill-opacity:1;stroke:none;display:inline"
       id="path3755-45-3-18"
       sodipodi:cx="355.82623"
       sodipodi:cy="123.98092"
       sodipodi:rx="1.767767"
       sodipodi:ry="1.767767"
       d="m 357.594,123.98092 a 1.767767,1.767767 0 1 1 -3.53553,0 1.767767,1.767767 0 1 1 3.53553,0 z"
       transform="matrix(0.55357143,0,0,0.55357143,-105.54667,-65.775152)" />
    <path
       sodipodi:type="arc"
       style="fill:#c6c6c6;fill-opacity:1;stroke:none;display:inline"
       id="path3755-45-3-49"
       sodipodi:cx="355.82623"
       sodipodi:cy="123.98092"
       sodipodi:rx="1.767767"
       sodipodi:ry="1.767767"
       d="m 357.594,123.98092 a 1.767767,1.767767 0 1 1 -3.53553,0 1.767767,1.767767 0 1 1 3.53553,0 z"
       transform="matrix(0.55357143,0,0,0.55357143,103.73905,104.93913)" />
    <path
       sodipodi:type="arc"
       style="fill:#c6c6c6;fill-opacity:1;stroke:none;display:inline"
       id="path3755-45-3-63"
       sodipodi:cx="355.82623"
       sodipodi:cy="123.98092"
       sodipodi:rx="1.767767"
       sodipodi:ry="1.767767"
       d="m 357.594,123.98092 a 1.767767,1.767767 0 1 1 -3.53553,0 1.767767,1.767767 0 1 1 3.53553,0 z"
       transform="matrix(0.55357143,0,0,0.55357143,77.310478,98.510562)" />
    <path
       sodipodi:type="arc"
       style="fill:#c6c6c6;fill-opacity:1;stroke:none;display:inline"
       id="path3755-45-3-78"
       sodipodi:cx="355.82623"
       sodipodi:cy="123.98092"
       sodipodi:rx="1.767767"
       sodipodi:ry="1.767767"
       d="m 357.594,123.98092 a 1.767767,1.767767 0 1 1 -3.53553,0 1.767767,1.767767 0 1 1 3.53553,0 z"
       transform="matrix(0.55357143,0,0,0.55357143,79.453335,182.08199)" />
    <path
       sodipodi:type="arc"
       style="fill:#c6c6c6;fill-opacity:1;stroke:none;display:inline"
       id="path3755-45-3-82"
       sodipodi:cx="355.82623"
       sodipodi:cy="123.98092"
       sodipodi:rx="1.767767"
       sodipodi:ry="1.767767"
       d="m 357.594,123.98092 a 1.767767,1.767767 0 1 1 -3.53553,0 1.767767,1.767767 0 1 1 3.53553,0 z"
       transform="matrix(0.55357143,0,0,0.55357143,-61.975236,129.22485)" />
    <path
       sodipodi:type="arc"
       style="fill:#c6c6c6;fill-opacity:1;stroke:none;display:inline"
       id="path3755-45-3-91"
       sodipodi:cx="355.82623"
       sodipodi:cy="123.98092"
       sodipodi:rx="1.767767"
       sodipodi:ry="1.767767"
       d="m 357.594,123.98092 a 1.767767,1.767767 0 1 1 -3.53553,0 1.767767,1.767767 0 1 1 3.53553,0 z"
       transform="matrix(0.55357143,0,0,0.55357143,-155.54667,35.65342)" />
    <path
       sodipodi:type="arc"
       style="fill:#c6c6c6;fill-opacity:1;stroke:none;display:inline"
       id="path3755-45-3-35"
       sodipodi:cx="355.82623"
       sodipodi:cy="123.98092"
       sodipodi:rx="1.767767"
       sodipodi:ry="1.767767"
       d="m 357.594,123.98092 a 1.767767,1.767767 0 1 1 -3.53553,0 1.767767,1.767767 0 1 1 3.53553,0 z"
       transform="matrix(0.55357143,0,0,0.55357143,-193.40381,57.081991)" />
    <path
       sodipodi:type="arc"
       style="fill:#c6c6c6;fill-opacity:1;stroke:none;display:inline"
       id="path3755-45-3-984"
       sodipodi:cx="355.82623"
       sodipodi:cy="123.98092"
       sodipodi:rx="1.767767"
       sodipodi:ry="1.767767"
       d="m 357.594,123.98092 a 1.767767,1.767767 0 1 1 -3.53553,0 1.767767,1.767767 0 1 1 3.53553,0 z"
       transform="matrix(0.55357143,0,0,0.55357143,-196.26095,-60.060866)" />
    <path
       sodipodi:type="arc"
       style="fill:#c6c6c6;fill-opacity:1;stroke:none;display:inline"
       id="path3755-45-3-07"
       sodipodi:cx="355.82623"
       sodipodi:cy="123.98092"
       sodipodi:rx="1.767767"
       sodipodi:ry="1.767767"
       d="m 357.594,123.98092 a 1.767767,1.767767 0 1 1 -3.53553,0 1.767767,1.767767 0 1 1 3.53553,0 z"
       transform="matrix(0.55357143,0,0,0.55357143,-106.97524,122.79628)" />
    <path
       sodipodi:type="arc"
       style="fill:#c6c6c6;fill-opacity:1;stroke:none;display:inline"
       id="path3755-45-3-636"
       sodipodi:cx="355.82623"
       sodipodi:cy="123.98092"
       sodipodi:rx="1.767767"
       sodipodi:ry="1.767767"
       d="m 357.594,123.98092 a 1.767767,1.767767 0 1 1 -3.53553,0 1.767767,1.767767 0 1 1 3.53553,0 z"
       transform="matrix(0.55357143,0,0,0.55357143,-131.97524,169.93913)" />
    <path
       sodipodi:type="arc"
       style="fill:#c6c6c6;fill-opacity:1;stroke:none;display:inline"
       id="path3755-45-3-15"
       sodipodi:cx="355.82623"
       sodipodi:cy="123.98092"
       sodipodi:rx="1.767767"
       sodipodi:ry="1.767767"
       d="m 357.594,123.98092 a 1.767767,1.767767 0 1 1 -3.53553,0 1.767767,1.767767 0 1 1 3.53553,0 z"
       transform="matrix(0.55357143,0,0,0.55357143,-80.546665,201.36771)" />
    <path
       sodipodi:type="arc"
       style="fill:#c6c6c6;fill-opacity:1;stroke:none;display:inline"
       id="path3755-45-3-420"
       sodipodi:cx="355.82623"
       sodipodi:cy="123.98092"
       sodipodi:rx="1.767767"
       sodipodi:ry="1.767767"
       d="m 357.594,123.98092 a 1.767767,1.767767 0 1 1 -3.53553,0 1.767767,1.767767 0 1 1 3.53553,0 z"
       transform="matrix(0.55357143,0,0,0.55357143,-22.689522,134.22485)" />
    <path
       sodipodi:type="arc"
       style="fill:#c6c6c6;fill-opacity:1;stroke:none;display:inline"
       id="path3755-45-3-97"
       sodipodi:cx="355.82623"
       sodipodi:cy="123.98092"
       sodipodi:rx="1.767767"
       sodipodi:ry="1.767767"
       d="m 357.594,123.98092 a 1.767767,1.767767 0 1 1 -3.53553,0 1.767767,1.767767 0 1 1 3.53553,0 z"
       transform="matrix(0.55357143,0,0,0.55357143,-99.832379,66.367705)" />
    <path
       sodipodi:type="arc"
       style="fill:#c6c6c6;fill-opacity:1;stroke:none;display:inline"
       id="path3755-45-3-37"
       sodipodi:cx="355.82623"
       sodipodi:cy="123.98092"
       sodipodi:rx="1.767767"
       sodipodi:ry="1.767767"
       d="m 357.594,123.98092 a 1.767767,1.767767 0 1 1 -3.53553,0 1.767767,1.767767 0 1 1 3.53553,0 z"
       transform="matrix(0.55357143,0,0,0.55357143,-169.83238,-37.203723)" />
    <path
       sodipodi:type="arc"
       style="fill:#c6c6c6;fill-opacity:1;stroke:none;display:inline"
       id="path3755-45-3-26"
       sodipodi:cx="355.82623"
       sodipodi:cy="123.98092"
       sodipodi:rx="1.767767"
       sodipodi:ry="1.767767"
       d="m 357.594,123.98092 a 1.767767,1.767767 0 1 1 -3.53553,0 1.767767,1.767767 0 1 1 3.53553,0 z"
       transform="matrix(0.55357143,0,0,0.55357143,-44.118094,22.081991)" />
    <path
       sodipodi:type="arc"
       style="fill:#c6c6c6;fill-opacity:1;stroke:none;display:inline"
       id="path3755-45-3-01"
       sodipodi:cx="355.82623"
       sodipodi:cy="123.98092"
       sodipodi:rx="1.767767"
       sodipodi:ry="1.767767"
       d="m 357.594,123.98092 a 1.767767,1.767767 0 1 1 -3.53553,0 1.767767,1.767767 0 1 1 3.53553,0 z"
       transform="matrix(0.55357143,0,0,0.55357143,-4.1180935,56.367705)" />
    <path
       sodipodi:type="arc"
       style="fill:#c6c6c6;fill-opacity:1;stroke:none;display:inline"
       id="path3755-45-3-657"
       sodipodi:cx="355.82623"
       sodipodi:cy="123.98092"
       sodipodi:rx="1.767767"
       sodipodi:ry="1.767767"
       d="m 357.594,123.98092 a 1.767767,1.767767 0 1 1 -3.53553,0 1.767767,1.767767 0 1 1 3.53553,0 z"
       transform="matrix(0.55357143,0,0,0.55357143,-147.68952,112.08199)" />
    <path
       sodipodi:type="arc"
       style="fill:#c6c6c6;fill-opacity:1;stroke:none;display:inline"
       id="path3755-45-3-54"
       sodipodi:cx="355.82623"
       sodipodi:cy="123.98092"
       sodipodi:rx="1.767767"
       sodipodi:ry="1.767767"
       d="m 357.594,123.98092 a 1.767767,1.767767 0 1 1 -3.53553,0 1.767767,1.767767 0 1 1 3.53553,0 z"
       transform="matrix(0.55357143,0,0,0.55357143,-30.546665,207.79628)" />
    <path
       sodipodi:type="arc"
       style="fill:#c6c6c6;fill-opacity:1;stroke:none;display:inline"
       id="path3755-45-3-12"
       sodipodi:cx="355.82623"
       sodipodi:cy="123.98092"
       sodipodi:rx="1.767767"
       sodipodi:ry="1.767767"
       d="m 357.594,123.98092 a 1.767767,1.767767 0 1 1 -3.53553,0 1.767767,1.767767 0 1 1 3.53553,0 z"
       transform="matrix(0.55357143,0,0,0.55357143,1.5961922,182.08199)" />
    <path
       sodipodi:type="arc"
       style="fill:#c6c6c6;fill-opacity:1;stroke:none;display:inline"
       id="path3755-45-3-001"
       sodipodi:cx="355.82623"
       sodipodi:cy="123.98092"
       sodipodi:rx="1.767767"
       sodipodi:ry="1.767767"
       d="m 357.594,123.98092 a 1.767767,1.767767 0 1 1 -3.53553,0 1.767767,1.767767 0 1 1 3.53553,0 z"
       transform="matrix(0.55357143,0,0,0.55357143,72.310478,35.65342)" />
    <path
       sodipodi:type="arc"
       style="fill:#c6c6c6;fill-opacity:1;stroke:none;display:inline"
       id="path3755-45-3-46"
       sodipodi:cx="355.82623"
       sodipodi:cy="123.98092"
       sodipodi:rx="1.767767"
       sodipodi:ry="1.767767"
       d="m 357.594,123.98092 a 1.767767,1.767767 0 1 1 -3.53553,0 1.767767,1.767767 0 1 1 3.53553,0 z"
       transform="matrix(0.55357143,0,0,0.55357143,-5.546665,-37.203723)" />
    <path
       sodipodi:type="arc"
       style="fill:#c6c6c6;fill-opacity:1;stroke:none;display:inline"
       id="path3755-45-3-071"
       sodipodi:cx="355.82623"
       sodipodi:cy="123.98092"
       sodipodi:rx="1.767767"
       sodipodi:ry="1.767767"
       d="m 357.594,123.98092 a 1.767767,1.767767 0 1 1 -3.53553,0 1.767767,1.767767 0 1 1 3.53553,0 z"
       transform="matrix(0.55357143,0,0,0.55357143,-51.975236,-48.632295)" />
    <path
       sodipodi:type="arc"
       style="fill:#c6c6c6;fill-opacity:1;stroke:none;display:inline"
       id="path3755-45-3-777"
       sodipodi:cx="355.82623"
       sodipodi:cy="123.98092"
       sodipodi:rx="1.767767"
       sodipodi:ry="1.767767"
       d="m 357.594,123.98092 a 1.767767,1.767767 0 1 1 -3.53553,0 1.767767,1.767767 0 1 1 3.53553,0 z"
       transform="matrix(0.55357143,0,0,0.55357143,-143.40381,-72.918009)" />
    <path
       sodipodi:type="arc"
       style="fill:#c6c6c6;fill-opacity:1;stroke:none;display:inline"
       id="path3755-45-3-73"
       sodipodi:cx="355.82623"
       sodipodi:cy="123.98092"
       sodipodi:rx="1.767767"
       sodipodi:ry="1.767767"
       d="m 357.594,123.98092 a 1.767767,1.767767 0 1 1 -3.53553,0 1.767767,1.767767 0 1 1 3.53553,0 z"
       transform="matrix(0.55357143,0,0,0.55357143,10.167621,97.796277)" />
    <path
       sodipodi:type="arc"
       style="fill:#c6c6c6;fill-opacity:1;stroke:none;display:inline"
       id="path3755-45-3-359"
       sodipodi:cx="355.82623"
       sodipodi:cy="123.98092"
       sodipodi:rx="1.767767"
       sodipodi:ry="1.767767"
       d="m 357.594,123.98092 a 1.767767,1.767767 0 1 1 -3.53553,0 1.767767,1.767767 0 1 1 3.53553,0 z"
       transform="matrix(0.55357143,0,0,0.55357143,-71.260951,93.510562)" />
    <path
       sodipodi:type="arc"
       style="fill:#c6c6c6;fill-opacity:1;stroke:none;display:inline"
       id="path3755-45-3-981"
       sodipodi:cx="355.82623"
       sodipodi:cy="123.98092"
       sodipodi:rx="1.767767"
       sodipodi:ry="1.767767"
       d="m 357.594,123.98092 a 1.767767,1.767767 0 1 1 -3.53553,0 1.767767,1.767767 0 1 1 3.53553,0 z"
       transform="matrix(0.55357143,0,0,0.55357143,-190.54667,184.22485)" />
  </g>
  <g
     inkscape:groupmode="layer"
     id="layer3"
     inkscape:label="stars2"
     style="display:inline">
    <path
       sodipodi:type="arc"
       style="fill:#ffffff;fill-opacity:1;stroke:none;display:inline"
       id="path3755"
       sodipodi:cx="355.82623"
       sodipodi:cy="123.98092"
       sodipodi:rx="1.767767"
       sodipodi:ry="1.767767"
       d="m 357.594,123.98092 a 1.767767,1.767767 0 1 1 -3.53553,0 1.767767,1.767767 0 1 1 3.53553,0 z"
       transform="translate(-90.471788,-98.04793)" />
    <path
       sodipodi:type="arc"
       style="fill:#ffffff;fill-opacity:1;stroke:none;display:inline"
       id="path3755-1"
       sodipodi:cx="355.82623"
       sodipodi:cy="123.98092"
       sodipodi:rx="1.767767"
       sodipodi:ry="1.767767"
       d="m 357.594,123.98092 a 1.767767,1.767767 0 1 1 -3.53553,0 1.767767,1.767767 0 1 1 3.53553,0 z"
       transform="translate(-182.33253,-87.88327)" />
    <path
       sodipodi:type="arc"
       style="fill:#ffffff;fill-opacity:1;stroke:none;display:inline"
       id="path3755-7"
       sodipodi:cx="355.82623"
       sodipodi:cy="123.98092"
       sodipodi:rx="1.767767"
       sodipodi:ry="1.767767"
       d="m 357.594,123.98092 a 1.767767,1.767767 0 1 1 -3.53553,0 1.767767,1.767767 0 1 1 3.53553,0 z"
       transform="translate(-212.63711,-36.61803)" />
    <path
       sodipodi:type="arc"
       style="fill:#ffffff;fill-opacity:1;stroke:none;display:inline"
       id="path3755-4"
       sodipodi:cx="355.82623"
       sodipodi:cy="123.98092"
       sodipodi:rx="1.767767"
       sodipodi:ry="1.767767"
       d="m 357.594,123.98092 a 1.767767,1.767767 0 1 1 -3.53553,0 1.767767,1.767767 0 1 1 3.53553,0 z"
       transform="translate(-144.70435,4.04061)" />
    <path
       sodipodi:type="arc"
       style="fill:#ffffff;fill-opacity:1;stroke:none;display:inline"
       id="path3755-0"
       sodipodi:cx="355.82623"
       sodipodi:cy="123.98092"
       sodipodi:rx="1.767767"
       sodipodi:ry="1.767767"
       d="m 357.594,123.98092 a 1.767767,1.767767 0 1 1 -3.53553,0 1.767767,1.767767 0 1 1 3.53553,0 z"
       transform="translate(-136.37059,-68.69037)" />
    <path
       sodipodi:type="arc"
       style="fill:#ffffff;fill-opacity:1;stroke:none;display:inline"
       id="path3755-9"
       sodipodi:cx="355.82623"
       sodipodi:cy="123.98092"
       sodipodi:rx="1.767767"
       sodipodi:ry="1.767767"
       d="m 357.594,123.98092 a 1.767767,1.767767 0 1 1 -3.53553,0 1.767767,1.767767 0 1 1 3.53553,0 z"
       transform="translate(-229.05209,-97.73226)" />
    <path
       sodipodi:type="arc"
       style="fill:#ffffff;fill-opacity:1;stroke:none;display:inline"
       id="path3755-48"
       sodipodi:cx="355.82623"
       sodipodi:cy="123.98092"
       sodipodi:rx="1.767767"
       sodipodi:ry="1.767767"
       d="m 357.594,123.98092 a 1.767767,1.767767 0 1 1 -3.53553,0 1.767767,1.767767 0 1 1 3.53553,0 z"
       transform="translate(-335.82623,-89.6952)" />
    <path
       sodipodi:type="arc"
       style="fill:#ffffff;fill-opacity:1;stroke:none;display:inline"
       id="path3755-8"
       sodipodi:cx="355.82623"
       sodipodi:cy="123.98092"
       sodipodi:rx="1.767767"
       sodipodi:ry="1.767767"
       d="m 357.594,123.98092 a 1.767767,1.767767 0 1 1 -3.53553,0 1.767767,1.767767 0 1 1 3.53553,0 z"
       transform="translate(-318.68338,11.73337)" />
    <path
       sodipodi:type="arc"
       style="fill:#ffffff;fill-opacity:1;stroke:none;display:inline"
       id="path3755-2"
       sodipodi:cx="355.82623"
       sodipodi:cy="123.98092"
       sodipodi:rx="1.767767"
       sodipodi:ry="1.767767"
       d="m 357.594,123.98092 a 1.767767,1.767767 0 1 1 -3.53553,0 1.767767,1.767767 0 1 1 3.53553,0 z"
       transform="translate(-297.2548,-54.6952)" />
    <path
       sodipodi:type="arc"
       style="fill:#ffffff;fill-opacity:1;stroke:none;display:inline"
       id="path3755-45"
       sodipodi:cx="355.82623"
       sodipodi:cy="123.98092"
       sodipodi:rx="1.767767"
       sodipodi:ry="1.767767"
       d="m 357.594,123.98092 a 1.767767,1.767767 0 1 1 -3.53553,0 1.767767,1.767767 0 1 1 3.53553,0 z"
       transform="translate(-280.11195,78.16194)" />
    <path
       sodipodi:type="arc"
       style="fill:#ffffff;fill-opacity:1;stroke:none;display:inline"
       id="path3755-5"
       sodipodi:cx="355.82623"
       sodipodi:cy="123.98092"
       sodipodi:rx="1.767767"
       sodipodi:ry="1.767767"
       d="m 357.594,123.98092 a 1.767767,1.767767 0 1 1 -3.53553,0 1.767767,1.767767 0 1 1 3.53553,0 z"
       transform="translate(-328.68338,132.44765)" />
    <path
       sodipodi:type="arc"
       style="fill:#ffffff;fill-opacity:1;stroke:none;display:inline"
       id="path3755-17"
       sodipodi:cx="355.82623"
       sodipodi:cy="123.98092"
       sodipodi:rx="1.767767"
       sodipodi:ry="1.767767"
       d="m 357.594,123.98092 a 1.767767,1.767767 0 1 1 -3.53553,0 1.767767,1.767767 0 1 1 3.53553,0 z"
       transform="translate(-222.96909,145.3048)" />
    <path
       sodipodi:type="arc"
       style="fill:#ffffff;fill-opacity:1;stroke:none;display:inline"
       id="path3755-11"
       sodipodi:cx="355.82623"
       sodipodi:cy="123.98092"
       sodipodi:rx="1.767767"
       sodipodi:ry="1.767767"
       d="m 357.594,123.98092 a 1.767767,1.767767 0 1 1 -3.53553,0 1.767767,1.767767 0 1 1 3.53553,0 z"
       transform="translate(-122.2548,119.59051)" />
    <path
       sodipodi:type="arc"
       style="fill:#ffffff;fill-opacity:1;stroke:none;display:inline"
       id="path3755-52"
       sodipodi:cx="355.82623"
       sodipodi:cy="123.98092"
       sodipodi:rx="1.767767"
       sodipodi:ry="1.767767"
       d="m 357.594,123.98092 a 1.767767,1.767767 0 1 1 -3.53553,0 1.767767,1.767767 0 1 1 3.53553,0 z"
       transform="translate(-226.54052,47.44765)" />
    <path
       sodipodi:type="arc"
       style="fill:#ffffff;fill-opacity:1;stroke:none;display:inline"
       id="path3755-76"
       sodipodi:cx="355.82623"
       sodipodi:cy="123.98092"
       sodipodi:rx="1.767767"
       sodipodi:ry="1.767767"
       d="m 357.594,123.98092 a 1.767767,1.767767 0 1 1 -3.53553,0 1.767767,1.767767 0 1 1 3.53553,0 z"
       transform="translate(-195.11195,-8.98092)" />
    <path
       sodipodi:type="arc"
       style="fill:#ffffff;fill-opacity:1;stroke:none;display:inline"
       id="path3755-14"
       sodipodi:cx="355.82623"
       sodipodi:cy="123.98092"
       sodipodi:rx="1.767767"
       sodipodi:ry="1.767767"
       d="m 357.594,123.98092 a 1.767767,1.767767 0 1 1 -3.53553,0 1.767767,1.767767 0 1 1 3.53553,0 z"
       transform="translate(-265.82623,8.16194)" />
    <path
       sodipodi:type="arc"
       style="fill:#ffffff;fill-opacity:1;stroke:none;display:inline"
       id="path3755-23"
       sodipodi:cx="355.82623"
       sodipodi:cy="123.98092"
       sodipodi:rx="1.767767"
       sodipodi:ry="1.767767"
       d="m 357.594,123.98092 a 1.767767,1.767767 0 1 1 -3.53553,0 1.767767,1.767767 0 1 1 3.53553,0 z"
       transform="translate(-298.68338,-124.6952)" />
    <path
       sodipodi:type="arc"
       style="fill:#ffffff;fill-opacity:1;stroke:none;display:inline"
       id="path3755-22"
       sodipodi:cx="355.82623"
       sodipodi:cy="123.98092"
       sodipodi:rx="1.767767"
       sodipodi:ry="1.767767"
       d="m 357.594,123.98092 a 1.767767,1.767767 0 1 1 -3.53553,0 1.767767,1.767767 0 1 1 3.53553,0 z"
       transform="translate(-55.826233,12.44765)" />
    <path
       sodipodi:type="arc"
       style="fill:#ffffff;fill-opacity:1;stroke:none;display:inline"
       id="path3755-16"
       sodipodi:cx="355.82623"
       sodipodi:cy="123.98092"
       sodipodi:rx="1.767767"
       sodipodi:ry="1.767767"
       d="m 357.594,123.98092 a 1.767767,1.767767 0 1 1 -3.53553,0 1.767767,1.767767 0 1 1 3.53553,0 z"
       transform="translate(-90.826233,-33.26663)" />
    <path
       sodipodi:type="arc"
       style="fill:#ffffff;fill-opacity:1;stroke:none;display:inline"
       id="path3755-85"
       sodipodi:cx="355.82623"
       sodipodi:cy="123.98092"
       sodipodi:rx="1.767767"
       sodipodi:ry="1.767767"
       d="m 357.594,123.98092 a 1.767767,1.767767 0 1 1 -3.53553,0 1.767767,1.767767 0 1 1 3.53553,0 z"
       transform="translate(-172.2548,85.3048)" />
    <path
       sodipodi:type="arc"
       style="fill:#ffffff;fill-opacity:1;stroke:none;display:inline"
       id="path3755-761"
       sodipodi:cx="355.82623"
       sodipodi:cy="123.98092"
       sodipodi:rx="1.767767"
       sodipodi:ry="1.767767"
       d="m 357.594,123.98092 a 1.767767,1.767767 0 1 1 -3.53553,0 1.767767,1.767767 0 1 1 3.53553,0 z"
       transform="translate(-56.540518,171.73337)" />
    <path
       sodipodi:type="arc"
       style="fill:#ffffff;fill-opacity:1;stroke:none;display:inline"
       id="path3755-89"
       sodipodi:cx="355.82623"
       sodipodi:cy="123.98092"
       sodipodi:rx="1.767767"
       sodipodi:ry="1.767767"
       d="m 357.594,123.98092 a 1.767767,1.767767 0 1 1 -3.53553,0 1.767767,1.767767 0 1 1 3.53553,0 z"
       transform="translate(-165.11195,168.87622)" />
    <path
       sodipodi:type="arc"
       style="fill:#ffffff;fill-opacity:1;stroke:none;display:inline"
       id="path3755-27"
       sodipodi:cx="355.82623"
       sodipodi:cy="123.98092"
       sodipodi:rx="1.767767"
       sodipodi:ry="1.767767"
       d="m 357.594,123.98092 a 1.767767,1.767767 0 1 1 -3.53553,0 1.767767,1.767767 0 1 1 3.53553,0 z"
       transform="translate(-273.68338,125.3048)" />
    <path
       sodipodi:type="arc"
       style="fill:#ffffff;fill-opacity:1;stroke:none;display:inline"
       id="path3755-95"
       sodipodi:cx="355.82623"
       sodipodi:cy="123.98092"
       sodipodi:rx="1.767767"
       sodipodi:ry="1.767767"
       d="m 357.594,123.98092 a 1.767767,1.767767 0 1 1 -3.53553,0 1.767767,1.767767 0 1 1 3.53553,0 z"
       transform="translate(-260.11195,-73.98092)" />
    <path
       sodipodi:type="arc"
       style="fill:#ffffff;fill-opacity:1;stroke:none;display:inline"
       id="path3755-43"
       sodipodi:cx="355.82623"
       sodipodi:cy="123.98092"
       sodipodi:rx="1.767767"
       sodipodi:ry="1.767767"
       d="m 357.594,123.98092 a 1.767767,1.767767 0 1 1 -3.53553,0 1.767767,1.767767 0 1 1 3.53553,0 z"
       transform="translate(-119.39766,58.87622)" />
    <path
       sodipodi:type="arc"
       style="fill:#ffffff;fill-opacity:1;stroke:none;display:inline"
       id="path3755-12"
       sodipodi:cx="355.82623"
       sodipodi:cy="123.98092"
       sodipodi:rx="1.767767"
       sodipodi:ry="1.767767"
       d="m 357.594,123.98092 a 1.767767,1.767767 0 1 1 -3.53553,0 1.767767,1.767767 0 1 1 3.53553,0 z"
       transform="translate(-335.82623,66.73337)" />
  </g>
</svg>
